<svg width="110" height="51" viewBox="0 0 110 51" fill="none" xmlns="http://www.w3.org/2000/svg">
<path d="M107.186 31.8574L104.976 34.879ZM102.113 37.607L104.976 34.879ZM102.113 37.607L98.8061 39.9856ZM98.8061 39.9856L95.1615 42.0533ZM95.1615 42.0533L91.2593 43.8419ZM91.2593 43.8419L87.1586 45.3775ZM87.1586 45.3775L82.9017 46.6807ZM82.9017 46.6807L78.5176 47.7677ZM78.5176 47.7677L74.0238 48.6504ZM74.0238 48.6504L69.4282 49.3367ZM69.4282 49.3367L64.7296 49.8302ZM64.7296 49.8302L59.9185 50.1305ZM59.9185 50.1305L54.9765 50.2326ZM54.9765 50.2326L50.0344 50.1305ZM50.0344 50.1305L45.2233 49.8302ZM45.2233 49.8302L40.5248 49.3367ZM40.5248 49.3367L35.9292 48.6504ZM35.9292 48.6504L31.4354 47.7677ZM31.4354 47.7677L27.0513 46.6807ZM27.0513 46.6807L22.7944 45.3775ZM22.7944 45.3775L18.6937 43.8419ZM18.6937 43.8419L14.7915 42.0533ZM14.7915 42.0533L11.1468 39.9856ZM11.1468 39.9856L7.83969 37.607ZM7.83969 37.607L4.97647 34.879ZM4.97647 34.879L2.76714 31.8574ZM2.76714 31.8574L1.40359 28.6372ZM1.40359 28.6372L1 25.2424ZM1 25.2424L1.68128 21.7134ZM1.68128 21.7134L3.57579 18.1109ZM3.57579 18.1109L6.80372 14.5203ZM6.80372 14.5203L11.4604 11.054ZM11.4604 11.054L17.5949 7.85163ZM17.5949 7.85163L25.1852 5.07535ZM25.1852 5.07535L34.1151 2.89935ZM34.1151 2.89935L44.1582 1.49314ZM44.1582 1.49314L54.9765 1ZM54.9765 1L65.7947 1.49314ZM65.7947 1.49314L75.8378 2.89935ZM75.8378 2.89935L84.7677 5.07535ZM84.7677 5.07535L92.358 7.85163ZM92.358 7.85163L98.4925 11.054ZM98.4925 11.054L103.149 14.5203ZM103.149 14.5203L106.377 18.1109ZM106.377 18.1109L108.272 21.7134ZM108.272 21.7134L108.953 25.2424ZM108.953 25.2424L108.549 28.6372ZM108.549 28.6372L107.186 31.8574Z" stroke="#FF0101" stroke-linecap="round"/>
</svg>
